# xmcd
#
# Track frame offsets:
#      150
#      15729
#      32478
#      47590
#      61212
#
# Disc length: 1090 seconds
#
# Revision: 0
# Processed by: cddbd v1.4PL0 Copyright (c) Steve Scherf et al.
# Submitted via: SoundClick v1.0
#
DISCID=33044005
DTITLE=Pamala/Jim Thomas - Priceless Two
DYEAR=1900
DGENRE=
TTITLE0=Stil Holdin On
TTITLE1=In Our World
TTITLE2=Outside The Rain Is Pouring Down
TTITLE3=Which One Am I
TTITLE4=Im Yours
EXTD=
EXTT0=
EXTT1=
EXTT2=
EXTT3=
EXTT4=
PLAYORDER=
